<?xml version="1.0" ?><svg style="enable-background:new 0 0 24 24;" version="1.1" viewBox="0 0 24 24" xml:space="preserve" xmlns="http://www.w3.org/2000/svg" xmlns:xlink="http://www.w3.org/1999/xlink"><style type="text/css">
	.st0{display:none;}
</style><g class="st0" id="grid"/><g id="icon"><path d="M1.349,21h13.302C15.395,21,16,20.395,16,19.651V1.349C16,0.605,15.395,0,14.651,0H1.349C0.605,0,0,0.605,0,1.349v18.303   C0,20.395,0.605,21,1.349,21z M1,1.349C1,1.156,1.157,1,1.349,1h13.302C14.843,1,15,1.156,15,1.349v18.303   C15,19.844,14.843,20,14.651,20H1.349C1.157,20,1,19.844,1,19.651V1.349z"/><path d="M22.651,3h-4.655c-0.276,0-0.5,0.224-0.5,0.5s0.224,0.5,0.5,0.5h4.655C22.843,4,23,4.156,23,4.349v18.303   C23,22.844,22.843,23,22.651,23H9.349C9.157,23,9,22.844,9,22.651c0-0.276-0.224-0.5-0.5-0.5S8,22.375,8,22.651   C8,23.395,8.605,24,9.349,24h13.302C23.395,24,24,23.395,24,22.651V4.349C24,3.605,23.395,3,22.651,3z"/></g></svg>