<svg id="_x31_px" enable-background="new 0 0 24 24" height="512" viewBox="0 0 24 24" width="512" xmlns="http://www.w3.org/2000/svg">
<path d="m13.5 16h-3c-.551 0-1-.449-1-1v-6.5h-3c-.202 0-.385-.122-.462-.309-.078-.187-.035-.401.108-.545l5.5-5.5c.195-.195.512-.195.707 0l5.5 5.5c.143.143.186.358.108.545-.076.187-.259.309-.461.309h-3v6.5c0 .551-.449 1-1 1zm-5.793-8.5h2.293c.276 0 .5.224.5.5v7h3v-7c0-.276.224-.5.5-.5h2.293l-4.293-4.293z"/>
<path d="m22.5 22h-21c-.827 0-1.5-.673-1.5-1.5v-1c0-.827.673-1.5 1.5-1.5h21c.827 0 1.5.673 1.5 1.5v1c0 .827-.673 1.5-1.5 1.5zm-21-3c-.276" fill="#606060" />
</svg>