<svg id="_x31_px" enable-background="new 0 0 24 24" height="512" viewBox="0 0 24 24" width="512" xmlns="http://www.w3.org/2000/svg">
<path d="m12 16c-.128 0-.256-.049-.354-.146l-5.5-5.5c-.143-.144-.186-.358-.108-.545.077-.187.26-.309.462-.309h3v-6.5c0-.551.449-1 1-1h3c.551 0 1 .449 1 1v6.5h3c.202 0 .385.122.462.309.078.187.035.402-.108.545l-5.5 5.5c-.098.097-.226.146-.354.146zm-4.293-5.5 4.293 4.293 4.293-4.293h-2.293c-.276 0-.5-.224-.5-.5v-7h-3v7c0 .276-.224.5-.5.5z"/>
<path d="m22.5 22h-21c-.827 0-1.5-.673-1.5-1.5v-1c0-.827.673-1.5 1.5-1.5h21c.827 0 1.5.673 1.5 1.5v1c0 .827-.673 1.5-1.5 1.5zm-21-3c-.276" fill="#606060" />
</svg>