<?xml version="1.0" encoding="UTF-8" standalone="no"?>
<!DOCTYPE svg PUBLIC "-//W3C//DTD SVG 1.1//EN" "http://www.w3.org/Graphics/SVG/1.1/DTD/svg11.dtd">
<svg version="1.1" xmlns="http://www.w3.org/2000/svg" xmlns:xlink="http://www.w3.org/1999/xlink" preserveAspectRatio="xMidYMid meet" viewBox="5 5 410 460" width="360" height="360">
<g>
	<path d="M341.07 344.07C341.01 341.26 340.59 160.23 340.54 139.8C340.49 121 321.34 105.79 297.78 105.84C288.79 105.85 243.84 105.94 162.93 106.09C178.06 118.1 186.46 124.77 188.14 126.11C192.15 129.29 192.16 134.46 188.17 137.66C184.18 140.86 177.69 140.87 173.68 137.68C169.56 134.41 136.6 108.22 132.48 104.95C131.67 104.59 130.85 104.27 130.16 103.72C128.06 102.06 127.11 99.84 127.22 97.65C127.11 95.45 128.03 93.23 130.13 91.56C130.81 91 131.64 90.68 132.44 90.32C136.54 87.03 169.37 60.72 173.47 57.43C177.46 54.23 183.95 54.22 187.96 57.4C191.96 60.58 191.98 65.75 187.99 68.95C186.31 70.29 177.95 77 162.89 89.07C243.8 88.91 288.75 88.83 297.74 88.81C333.07 88.74 359.37 111.6 359.44 139.8C359.5 160.23 358.1 340.44 358.16 344.07C358.23 347.7 341.14 346.88 341.07 344.07Z" fill="darkblue" style="stroke:darkblue; stroke-width:6"></path>
	<path d="M80.55 131.8C80.6 134.61 80.04 315.65 79.98 336.08C79.93 354.88 98.99 370.16 122.55 370.21C131.54 370.23 176.49 370.32 257.4 370.49C242.34 358.42 233.98 351.72 232.3 350.38C228.31 347.18 228.33 342 232.34 338.83C236.34 335.65 242.83 335.66 246.82 338.86C250.92 342.15 283.74 368.47 287.85 371.76C288.66 372.12 289.48 372.44 290.16 373C292.25 374.66 293.19 376.88 293.06 379.08C293.16 381.28 292.23 383.5 290.12 385.16C289.44 385.71 288.61 386.03 287.81 386.39C283.69 389.66 250.72 415.84 246.6 419.11C242.59 422.3 236.11 422.28 232.11 419.08C228.12 415.89 228.14 410.72 232.15 407.53C233.83 406.2 242.23 399.53 257.35 387.52C176.44 387.35 131.49 387.25 122.5 387.23C87.17 387.16 60.39 364.23 60.47 336.03C60.53 315.6 62.29 135.39 62.25 131.76C62.2 128.13 80.5 128.99 80.55 131.8Z" fill="#E0E0E0" style="stroke:#E0E0E0; stroke-width:6"></path>
</g>
</svg>