<?xml version="1.0" encoding="iso-8859-1"?>
<!-- Generator: Adobe Illustrator 19.0.0, SVG Export Plug-In . SVG Version: 6.00 Build 0)  -->
<svg xmlns="http://www.w3.org/2000/svg" xmlns:xlink="http://www.w3.org/1999/xlink" version="1.1" id="Capa_1" x="0px" y="0px" viewBox="0 0 511.999 511.999" style="enable-background:new 0 0 511.999 511.999;" xml:space="preserve" width="512px" height="512px">
<g>
	<g>
		<path d="M506.012,111.514L400.481,5.984c-7.979-7.973-20.888-7.979-28.868-0.014L39.363,337.547    c-2.676,2.669-4.562,6.032-5.44,9.709L0.562,486.828c-1.648,6.897,0.409,14.168,5.426,19.186    c3.874,3.874,9.089,5.985,14.441,5.985c1.586,0,3.18-0.191,4.745-0.565l139.573-33.361c3.677-0.878,7.04-2.757,9.709-5.44    l331.57-332.251C513.991,132.403,513.985,119.48,506.012,111.514z M149.632,439.687L48.03,463.973l24.279-101.602L386.034,49.299    l76.67,76.67L149.632,439.687z" fill="#404040"/>
	</g>
</g>
<g>
	<g>
		
			<rect x="340.418" y="76.048" transform="matrix(0.7071 -0.7071 0.7071 0.7071 -1.1875 299.421)" width="40.843" height="150.192" fill="#404040"/>
	</g>
</g>
<g>
	<g>
		
			<rect x="52.658" y="258.373" transform="matrix(0.7071 -0.7071 0.7071 0.7071 -128.8402 246.5416)" width="361.047" height="40.843" fill="#404040"/>
	</g>
</g>
<g>
	<g>
		
			<rect x="85.448" y="331.51" transform="matrix(0.7071 -0.7071 0.7071 0.7071 -256.1682 193.8131)" width="40.843" height="149.239" fill="#404040"/>
	</g>
</g>
<g>
</g>
<g>
</g>
<g>
</g>
<g>
</g>
<g>
</g>
<g>
</g>
<g>
</g>
<g>
</g>
<g>
</g>
<g>
</g>
<g>
</g>
<g>
</g>
<g>
</g>
<g>
</g>
<g>
</g>
</svg>
