<?xml version="1.0"?>
<svg xmlns="http://www.w3.org/2000/svg" height="512px" version="1.1" viewBox="0 -34 512.00109 512" width="512px">
<g id="surface1">
<path d="M 476.851562 147.152344 L 476.851562 120.035156 C 476.851562 89.0625 452.074219 64.285156 421.097656 64.285156 L 274.882812 64.285156 C 263.429688 64.285156 252.675781 57.972656 246.832031 48.15625 L 234.679688 27.46875 C 224.507812 10.753906 206.160156 0 186.523438 0 L 90.800781 0 C 75.371094 0 60.878906 6.3125 50.242188 17.53125 C 39.605469 28.753906 34.113281 43.597656 34.816406 59.023438 L 38.789062 147.265625 L 35.050781 147.265625 C 24.882812 147.265625 15.296875 151.589844 8.632812 159.1875 C 1.972656 166.785156 -1.066406 176.953125 0.335938 187.003906 L 29.207031 395.636719 C 33.0625 423.21875 56.90625 444.140625 84.722656 444.140625 L 427.527344 444.140625 C 455.460938 444.140625 479.304688 423.101562 483.164062 395.402344 L 511.679688 187.007812 C 513.082031 176.957031 509.8125 166.785156 503.148438 159.191406 C 496.605469 151.59375 487.371094 147.152344 476.851562 147.152344 Z M 58.074219 58.089844 C 57.722656 49.089844 60.878906 40.324219 67.074219 33.777344 C 73.269531 27.234375 81.683594 23.375 90.683594 23.375 L 186.40625 23.375 C 197.859375 23.375 208.613281 29.6875 214.457031 39.503906 L 226.613281 60.191406 C 236.664062 77.023438 255.132812 87.777344 274.769531 87.777344 L 420.984375 87.777344 C 438.980469 87.777344 453.359375 102.035156 453.359375 120.152344 L 453.359375 147.265625 L 62.164062 147.265625 Z M 488.539062 183.734375 L 460.019531 392.246094 C 457.800781 408.375 443.890625 420.765625 427.644531 420.765625 L 84.839844 420.765625 C 68.59375 420.765625 54.683594 408.375 52.464844 392.363281 L 23.359375 183.851562 C 22.894531 180.460938 23.828125 177.1875 26.164062 174.617188 C 28.503906 172.046875 31.542969 170.644531 34.933594 170.644531 L 476.96875 170.644531 C 480.355469 170.644531 483.511719 171.929688 485.734375 174.617188 C 488.070312 177.1875 489.007812 180.34375 488.539062 183.734375 Z M 488.539062 183.734375 " style=" fill-rule:nonzero;fill-opacity:1;" stroke="#404040" fill="#404040"/>
<path d="M 303.753906 284.015625 L 267.636719 284.015625 L 267.636719 247.902344 C 267.636719 241.472656 262.378906 236.210938 255.949219 236.210938 C 249.519531 236.210938 244.261719 241.472656 244.261719 247.902344 L 244.261719 284.015625 L 208.148438 284.015625 C 201.71875 284.015625 196.457031 289.273438 196.457031 295.703125 C 196.457031 302.132812 201.71875 307.390625 208.148438 307.390625 L 244.261719 307.390625 L 244.261719 343.507812 C 244.261719 349.9375 249.519531 355.195312 255.949219 355.195312 C 262.378906 355.195312 267.636719 349.9375 267.636719 343.507812 L 267.636719 307.390625 L 303.753906 307.390625 C 310.183594 307.390625 315.441406 302.132812 315.441406 295.703125 C 315.441406 289.273438 310.183594 284.015625 303.753906 284.015625 Z M 303.753906 284.015625 " style=" fill-rule:nonzero;fill-opacity:1;" stroke="#404040" fill="#404040"/>
<path d="M 255.949219 176.605469 C 190.265625 176.605469 136.851562 230.019531 136.851562 295.703125 C 136.851562 361.390625 190.265625 414.804688 255.949219 414.804688 C 321.636719 414.804688 375.050781 361.390625 375.050781 295.703125 C 375.050781 230.019531 321.636719 176.605469 255.949219 176.605469 Z M 255.949219 391.425781 C 203.121094 391.425781 160.226562 348.53125 160.226562 295.703125 C 160.226562 242.875 203.121094 199.980469 255.949219 199.980469 C 308.777344 199.980469 351.671875 242.875 351.671875 295.703125 C 351.671875 348.53125 308.78125 391.425781 255.949219 391.425781 Z M 255.949219 391.425781 " style=" fill-rule:nonzero;fill-opacity:1;" stroke="#404040" fill="#404040"/>
</g>
</svg>
