<?xml version="1.0" encoding="iso-8859-1"?>
<!-- Generator: Adobe Illustrator 19.0.0, SVG Export Plug-In . SVG Version: 6.00 Build 0)  -->
<svg xmlns="http://www.w3.org/2000/svg" xmlns:xlink="http://www.w3.org/1999/xlink" version="1.1" id="Capa_1" x="0px" y="0px" viewBox="0 0 476.737 476.737" style="enable-background:new 0 0 476.737 476.737;" xml:space="preserve" width="512px" height="512px">
<g>
	<g>
		<g>
			<g>
				<path d="M444.955,31.782H333.208c-17.576,0-37.758,8.931-47.165,31.782c0,0-4.132,29.145-31.782,31.782      H31.782C14.239,95.347,0,109.077,0,126.621v286.551c0,17.544,14.239,31.783,31.782,31.783h413.172      c17.544,0,31.782-14.239,31.782-31.783V63.565C476.737,46.021,462.499,31.782,444.955,31.782z M444.955,126.621v286.551H31.782      V127.13H254.26l3.051-0.159c29.812-2.829,48.246-23.71,56.732-45.163c8.263-20.722,22.661-18.243,22.661-18.243h108.251V126.621      z" fill="#404040"/>
			</g>
		</g>
	</g>
</g>
<g>
</g>
<g>
</g>
<g>
</g>
<g>
</g>
<g>
</g>
<g>
</g>
<g>
</g>
<g>
</g>
<g>
</g>
<g>
</g>
<g>
</g>
<g>
</g>
<g>
</g>
<g>
</g>
<g>
</g>
</svg>
