<?xml version="1.0" encoding="UTF-8" standalone="no"?>
<!DOCTYPE svg PUBLIC "-//W3C//DTD SVG 1.1//EN" "http://www.w3.org/Graphics/SVG/1.1/DTD/svg11.dtd">
<svg version="1.1" xmlns="http://www.w3.org/2000/svg" xmlns:xlink="http://www.w3.org/1999/xlink" preserveAspectRatio="xMidYMid meet" viewBox="0 0 640 640" width="640" height="640"><defs><path d="M463.73 92.09C460.18 88.61 454.44 88.61 450.89 92.09C445.8 97.08 405.08 137.01 399.99 142C398.28 143.67 397.33 145.94 397.33 148.3C397.33 150.66 398.28 152.92 399.99 154.6C402.53 157.09 422.89 177.06 425.44 179.55C427.21 181.29 429.54 182.16 431.86 182.16C434.19 182.16 436.51 181.29 438.28 179.55C443.37 174.56 484.09 134.63 489.18 129.64C490.89 127.98 491.85 125.71 491.85 123.35C491.85 120.99 490.89 118.72 489.18 117.05C484.09 112.06 466.28 94.59 463.73 92.09ZM419.26 148.3L457.31 110.99L469.91 123.35L431.86 160.66L419.26 148.3Z" id="c14ug9UVhI"></path><path d="M489.18 117.05C487.48 115.37 485.17 114.44 482.76 114.44C480.35 114.44 478.04 115.37 476.34 117.05C471.25 122.04 430.53 161.96 425.44 166.95C421.88 170.44 421.88 176.07 425.44 179.55C427.98 182.05 448.34 202.01 450.89 204.51C452.59 206.18 454.9 207.12 457.31 207.12C459.72 207.12 462.03 206.17 463.73 204.51C468.82 199.51 509.54 159.59 514.63 154.6C518.19 151.12 518.19 145.48 514.63 142C509.54 137.01 491.73 119.54 489.18 117.05ZM444.71 173.25L482.76 135.94L495.36 148.3L457.31 185.61L444.71 173.25Z" id="a4vdnzrvIb"></path><path d="M514.63 142C511.08 138.52 505.34 138.52 501.79 142C496.7 146.99 455.98 186.92 450.89 191.91C449.18 193.58 448.23 195.85 448.23 198.21C448.23 200.57 449.18 202.83 450.89 204.51C453.43 207 473.79 226.96 476.34 229.46C478.11 231.2 480.43 232.07 482.76 232.07C485.09 232.07 487.41 231.2 489.18 229.46C494.27 224.47 534.99 184.54 540.08 179.55C541.79 177.89 542.74 175.61 542.74 173.25C542.74 170.89 541.79 168.63 540.08 166.95C534.99 161.96 517.18 144.5 514.63 142ZM470.16 198.21L508.21 160.9L520.81 173.25L482.76 210.56L470.16 198.21Z" id="c1o8XP2Azw"></path><path d="M540.08 166.95C538.38 165.28 536.07 164.34 533.66 164.34C531.25 164.34 528.94 165.28 527.24 166.95C522.15 171.95 481.43 211.87 476.34 216.86C472.78 220.35 472.78 225.98 476.34 229.46C478.88 231.96 499.24 251.92 501.79 254.41C503.48 256.09 505.8 257.02 508.21 257.02C510.62 257.02 512.92 256.09 514.63 254.41C519.72 249.42 560.44 209.5 565.53 204.51C569.08 201.02 569.08 195.39 565.53 191.91C560.44 186.92 542.63 169.45 540.08 166.95ZM495.61 223.16L533.66 185.85L546.26 198.21L508.21 235.52L495.61 223.16Z" id="c3KO669Aao"></path><path d="M406.47 210.61C403.06 207.27 397.03 207.27 393.62 210.61C385.35 218.72 319.18 283.61 310.91 291.72C304.1 298.4 300.35 307.28 300.35 316.73C300.35 326.19 304.1 335.07 310.91 341.75C317.95 348.64 327.18 352.09 336.43 352.09C345.67 352.09 354.91 348.64 361.93 341.74C370.2 333.63 436.37 268.75 444.65 260.64C446.35 258.98 447.31 256.7 447.31 254.34C447.31 251.98 446.35 249.72 444.65 248.04C437.01 240.56 410.28 214.35 406.47 210.61ZM323.76 329.16C320.38 325.84 318.52 321.44 318.52 316.74C318.52 312.05 320.38 307.64 323.76 304.32C328.84 299.33 354.27 274.4 400.04 229.52L425.37 254.36L349.08 329.16C336.86 333.73 328.42 333.73 323.76 329.16Z" id="e696JFz68f"></path><path d="M183.79 279.24C180.25 275.76 174.49 275.76 170.95 279.24C167.39 282.73 167.39 288.36 170.95 291.84C184.94 305.57 296.92 415.37 310.91 429.09C312.68 430.83 315.01 431.7 317.34 431.7C319.66 431.7 321.99 430.83 323.77 429.09C327.32 425.61 327.32 419.98 323.77 416.5C295.77 389.05 197.79 292.97 183.79 279.24Z" id="b6aKvqCNje"></path><path d="M349.21 441.45C345.66 437.97 339.91 437.97 336.36 441.45C332.81 444.93 332.81 450.56 336.36 454.05C338.91 456.54 359.27 476.51 361.81 479C363.58 480.74 365.91 481.61 368.23 481.61C370.56 481.61 372.89 480.74 374.66 479C378.21 475.52 378.21 469.89 374.66 466.4C369.57 461.41 351.75 443.95 349.21 441.45Z" id="d9ogamSzY"></path><path d="M164.7 435.2C161.16 431.72 155.4 431.72 151.86 435.2C149 438.01 126.15 460.41 123.29 463.21C119.01 467.42 116.65 473 116.65 478.94C116.65 484.88 119 490.46 123.29 494.66C126.46 497.77 151.8 522.62 154.97 525.73C159.39 530.07 165.19 532.23 171 532.23C176.81 532.22 182.62 530.06 187.04 525.72C189.89 522.92 212.75 500.51 215.6 497.71C217.31 496.04 218.26 493.77 218.26 491.41C218.26 489.05 217.31 486.79 215.6 485.11C205.42 475.13 169.79 440.2 164.7 435.2ZM167.83 513.14C164.66 510.03 139.32 485.18 136.15 482.07C134.99 480.94 134.82 479.63 134.82 478.95C134.82 478.26 134.99 476.94 136.14 475.82C137.61 474.37 144.99 467.14 158.28 454.11L196.34 491.43L174.2 513.14C171.12 514.29 169 514.29 167.83 513.14Z" id="aeaIWOfXB"></path><path d="M139.26 485.12C135.85 481.78 129.82 481.78 126.41 485.12C118.77 492.61 57.7 552.5 50.06 559.98C48.35 561.65 47.4 563.92 47.4 566.28C47.4 568.64 48.35 570.91 50.06 572.58C52.61 575.08 72.96 595.04 75.51 597.53C77.28 599.27 79.61 600.14 81.93 600.14C84.26 600.14 86.58 599.27 88.36 597.53C95.99 590.05 157.07 530.16 164.7 522.67C168.26 519.19 168.26 513.56 164.7 510.08C159.61 505.09 141.8 487.62 139.26 485.12ZM69.33 566.28L132.83 504.02L145.43 516.37L81.93 578.64L69.33 566.28Z" id="bnT0ZshVm"></path><path d="M444.66 73.38C434.1 63.02 416.9 63.02 406.34 73.38C394.89 84.61 303.28 174.44 291.83 185.67C290.12 187.34 289.17 189.61 289.17 191.97C289.17 194.33 290.12 196.59 291.83 198.27C298.19 204.51 349.1 254.41 355.46 260.65C358.87 263.99 364.9 263.99 368.31 260.65C370.42 258.57 381 248.2 400.05 229.51L425.38 254.35C406.33 273.03 395.75 283.41 393.63 285.48C391.92 287.15 390.97 289.42 390.97 291.78C390.97 294.14 391.92 296.4 393.63 298.08C399.99 304.32 450.88 354.23 457.25 360.47C458.95 362.14 461.26 363.08 463.67 363.08C466.08 363.08 468.39 362.14 470.09 360.47C481.54 349.24 573.16 259.42 584.61 248.19C595.17 237.83 595.17 220.97 584.61 210.61C556.62 183.16 458.66 87.11 444.66 73.38ZM463.67 341.57L412.9 291.78C431.95 273.1 442.53 262.73 444.65 260.65C446.35 258.98 447.31 256.71 447.31 254.35C447.31 251.99 446.35 249.73 444.65 248.05C440.83 244.31 410.28 214.36 406.47 210.62C403.06 207.28 397.03 207.28 393.62 210.62C391.5 212.69 380.92 223.07 361.87 241.75L311.1 191.97C375.95 128.38 411.98 93.05 419.19 85.98C422.67 82.58 428.34 82.58 431.82 85.98C445.81 99.7 557.76 209.48 571.76 223.21C575.23 226.63 575.23 232.18 571.75 235.59C557.34 249.72 521.32 285.05 463.67 341.57Z" id="kcWgEe02L"></path><path d="M406.47 285.49C402.91 282 397.17 282 393.62 285.49C389.17 289.86 353.54 324.79 349.08 329.16C342.32 335.79 330.53 335.79 323.76 329.16C320.38 325.84 318.52 321.44 318.52 316.74C318.52 312.05 320.38 307.64 323.76 304.32C328.21 299.95 363.84 265.02 368.3 260.65C371.85 257.17 371.85 251.54 368.3 248.05C360.66 240.57 299.58 180.68 291.95 173.19C288.41 169.71 282.65 169.71 279.1 173.19C268.29 183.8 181.76 268.64 170.95 279.24C169.95 280.22 169.19 281.42 168.75 282.73C164.29 295.83 128.66 400.64 124.21 413.74C123.13 416.94 123.97 420.47 126.41 422.86C136.59 432.84 218.02 512.69 228.2 522.67C229.93 524.37 232.26 525.28 234.63 525.28C235.59 525.28 236.56 525.13 237.5 524.83C250.86 520.46 357.75 485.52 371.11 481.16C372.45 480.71 373.67 479.98 374.67 479C385.48 468.4 472 383.55 482.81 372.95C486.37 369.47 486.37 363.84 482.81 360.35C467.54 345.38 414.1 292.98 406.47 285.49ZM237.08 506.18L143.23 414.15L185.31 290.34L285.53 192.08L349.03 254.34C326.16 276.77 313.45 289.22 310.91 291.72C304.1 298.4 300.35 307.28 300.35 316.73C300.35 326.19 304.1 335.07 310.91 341.75C324.54 355.11 348.3 355.12 361.93 341.75C364.47 339.26 377.17 326.8 400.04 304.38L463.54 366.65L363.33 464.92L237.08 506.18Z" id="daiGQMtMr"></path><path d="M196.51 354.12C192.97 350.63 187.21 350.63 183.67 354.12C180.11 357.6 180.11 363.23 183.67 366.71C193.85 376.69 275.28 456.55 285.46 466.53C287.24 468.27 289.56 469.14 291.89 469.14C294.21 469.14 296.54 468.27 298.31 466.53C301.86 463.04 301.86 457.41 298.31 453.93C277.95 433.97 206.69 364.1 196.51 354.12Z" id="a4smnhaV3A"></path><path d="M196.51 404.02C192.97 400.54 187.21 400.54 183.67 404.02C180.11 407.51 180.11 413.14 183.67 416.62C188.76 421.61 229.47 461.54 234.56 466.53C236.34 468.27 238.66 469.14 240.99 469.14C243.31 469.14 245.64 468.27 247.41 466.53C250.96 463.04 250.96 457.41 247.41 453.93C237.23 443.95 201.6 409.01 196.51 404.02Z" id="hRbjwtsMl"></path></defs><g><g><g><use xlink:href="#c14ug9UVhI" opacity="1" fill="#000000" fill-opacity="1"></use><g><use xlink:href="#c14ug9UVhI" opacity="1" fill-opacity="0" stroke="#000000" stroke-width="1" stroke-opacity="0"></use></g></g><g><use xlink:href="#a4vdnzrvIb" opacity="1" fill="#000000" fill-opacity="1"></use><g><use xlink:href="#a4vdnzrvIb" opacity="1" fill-opacity="0" stroke="#000000" stroke-width="1" stroke-opacity="0"></use></g></g><g><use xlink:href="#c1o8XP2Azw" opacity="1" fill="#000000" fill-opacity="1"></use><g><use xlink:href="#c1o8XP2Azw" opacity="1" fill-opacity="0" stroke="#000000" stroke-width="1" stroke-opacity="0"></use></g></g><g><use xlink:href="#c3KO669Aao" opacity="1" fill="#000000" fill-opacity="1"></use><g><use xlink:href="#c3KO669Aao" opacity="1" fill-opacity="0" stroke="#000000" stroke-width="1" stroke-opacity="0"></use></g></g><g><use xlink:href="#e696JFz68f" opacity="1" fill="#000000" fill-opacity="1"></use><g><use xlink:href="#e696JFz68f" opacity="1" fill-opacity="0" stroke="#000000" stroke-width="1" stroke-opacity="0"></use></g></g><g><use xlink:href="#b6aKvqCNje" opacity="1" fill="#000000" fill-opacity="1"></use><g><use xlink:href="#b6aKvqCNje" opacity="1" fill-opacity="0" stroke="#000000" stroke-width="1" stroke-opacity="0"></use></g></g><g><use xlink:href="#d9ogamSzY" opacity="1" fill="#000000" fill-opacity="1"></use><g><use xlink:href="#d9ogamSzY" opacity="1" fill-opacity="0" stroke="#000000" stroke-width="1" stroke-opacity="0"></use></g></g><g><use xlink:href="#aeaIWOfXB" opacity="1" fill="#000000" fill-opacity="1"></use><g><use xlink:href="#aeaIWOfXB" opacity="1" fill-opacity="0" stroke="#000000" stroke-width="1" stroke-opacity="0"></use></g></g><g><use xlink:href="#bnT0ZshVm" opacity="1" fill="#000000" fill-opacity="1"></use><g><use xlink:href="#bnT0ZshVm" opacity="1" fill-opacity="0" stroke="#000000" stroke-width="1" stroke-opacity="0"></use></g></g><g><use xlink:href="#kcWgEe02L" opacity="1" fill="#000000" fill-opacity="1"></use><g><use xlink:href="#kcWgEe02L" opacity="1" fill-opacity="0" stroke="#000000" stroke-width="1" stroke-opacity="0"></use></g></g><g><use xlink:href="#daiGQMtMr" opacity="1" fill="#000000" fill-opacity="1"></use><g><use xlink:href="#daiGQMtMr" opacity="1" fill-opacity="0" stroke="#000000" stroke-width="1" stroke-opacity="0"></use></g></g><g><use xlink:href="#a4smnhaV3A" opacity="1" fill="#000000" fill-opacity="1"></use><g><use xlink:href="#a4smnhaV3A" opacity="1" fill-opacity="0" stroke="#000000" stroke-width="1" stroke-opacity="0"></use></g></g><g><use xlink:href="#hRbjwtsMl" opacity="1" fill="#000000" fill-opacity="1"></use><g><use xlink:href="#hRbjwtsMl" opacity="1" fill-opacity="0" stroke="#000000" stroke-width="1" stroke-opacity="0"></use></g></g></g></g></svg>