<svg id="_x31_px" enable-background="new 0 0 24 24" height="512" viewBox="0 0 24 24" width="512" xmlns="http://www.w3.org/2000/svg"><g id="XMLID_1_">
	<path d="m18.5 7.997c.28 0 .5.23.5.5 0 .28-.22.5-.5.5h-11.79l-.5-.5.5-.5z"/>
	<path d="m18.25 15.997h-.96l.5-.5-.5-.5h.96c.28 0 .5.23.5.5 0 .28-.22.5-.5.5z"/>
	<path d="m17.79 15.497-.5.5h-11.79c-.28 0-.5-.22-.5-.5 0-.27.22-.5.5-.5h11.79z"/>
	<path d="m18.85 15.147c.2.2.2.51 0 .71l-3 3c-.09.09-.22.14-.35.14s-.26-.05-.35-.14c-.2-.2-.2-.51 0-.71l2.14-2.15h.96c.28 0 .5-.22.5-.5 0-.27-.22-.5-.5-.5h-.96l-2.14-2.14c-.2-.2-.2-.51 0-.71.19-.19.51-.19.7 0z"/>
	<path d="m6.71 7.997-.5.5.5.5h-.96c-.28 0-.5-.22-.5-.5 0-.27.22-.5.5-.5z"/>
	<path d="m5.15 8.147 3-3c.19-.19.51-.19.7 0 .2.2.2.51 0 .71l-2.14 2.14h-.96c-.28 0-.5.23-.5.5 0 .28.22.5.5.5h.96l2.14 2.15c.2.19.2.51 0 .71-.09.09-.22.14-.35.14s-.26-.05-.35-.14l-3-3c-.2-.2-.2-.51 0-.71z"/>
	</g>
</svg>