<?xml version="1.0" encoding="iso-8859-1"?>
<!-- Generator: Adobe Illustrator 16.0.0, SVG Export Plug-In . SVG Version: 6.00 Build 0)  -->
<!DOCTYPE svg PUBLIC "-//W3C//DTD SVG 1.1//EN" "http://www.w3.org/Graphics/SVG/1.1/DTD/svg11.dtd">
<svg xmlns="http://www.w3.org/2000/svg" xmlns:xlink="http://www.w3.org/1999/xlink" version="1.1" id="Capa_1" x="0px" y="0px" width="512px" height="512px" viewBox="0 0 612.013 612.013" style="enable-background:new 0 0 612.013 612.013;" xml:space="preserve">
<g>
	<g>
		<path d="M601.437,535.885L433.663,368.489c1.512-2.268,2.638-6.032,3.772-10.938c17.719-29.784,28.674-62.206,32.044-96.518    c0.78-7.915,1.134-16.207,1.134-24.13c0-26.012-4.343-52.088-13.198-77.665c-11.51-33.243-30.098-62.648-55.426-88.226    c-90.414-91.298-242.656-91.097-332.901,0c-30.018,30.299-50.391,65.633-61.08,105.945c-10.802,40.755-10.553,80.681,0,121.026    c10.553,40.344,30.652,75.67,61.08,105.944c45.355,45.131,104.811,68.617,166.269,68.617c47.125,0,89.972-13.626,129.697-38.455    l6.032-3.772l168.529,168.151c6.611,6.596,13.183,10.931,19.609,10.931h3.395c4.898,0,9.112-1.013,12.442-3.016    c4.215-2.525,9.129-6.322,14.703-11.687c4.23-4.062,6.41-6.411,6.788-7.537c10.184-10.183,15.459-19.987,15.459-29.414    C611.997,550.21,608.611,543.035,601.437,535.885z M422.354,287.431c-8.848,33.129-25.642,62.206-50.52,87.091    c-36.194,36.187-84.832,56.553-136.485,56.553c-52.78,0-97.942-19.328-136.855-56.553c-73.812-70.61-73.635-202.181,0-273.339    c38.72-37.425,83.698-56.93,136.855-56.93c53.914,0,98.892,19.111,136.485,56.93c24.62,24.773,41.849,53.535,50.52,86.714    C431.024,221.066,431.226,254.196,422.354,287.431z" fill="#404040"/>
	</g>
</g>
<g>
</g>
<g>
</g>
<g>
</g>
<g>
</g>
<g>
</g>
<g>
</g>
<g>
</g>
<g>
</g>
<g>
</g>
<g>
</g>
<g>
</g>
<g>
</g>
<g>
</g>
<g>
</g>
<g>
</g>
</svg>
