<svg height="466.04pt" viewBox="-50 -50 516.04 516.04" width="466.04pt" xmlns="http://www.w3.org/2000/svg"><path d="m456.039062 165.019531c5.523438 0 10-4.476562 10-10 0-5.523437-4.476562-10-10-10h-70.019531v-12.71875c.050781-13.882812-5.4375-27.210937-15.253906-37.027343-9.816406-9.8125-23.144531-15.304688-37.027344-15.253907h-12.71875v-70.019531c0-5.523438-4.476562-10-10-10-5.523437 0-10 4.476562-10 10v70.019531h-58v-70.019531c0-5.523438-4.476562-10-10-10-5.523437 0-10 4.476562-10 10v70.019531h-58v-70.019531c0-5.523438-4.476562-10-10-10-5.523437 0-10 4.476562-10 10v70.019531h-12.71875c-13.882812-.050781-27.210937 5.441407-37.027343 15.253907-9.8125 9.816406-15.304688 23.144531-15.253907 37.027343v12.71875h-70.019531c-5.523438 0-10 4.476563-10 10 0 5.523438 4.476562 10 10 10h70.019531v58h-70.019531c-5.523438 0-10 4.476563-10 10 0 5.523438 4.476562 10 10 10h70.019531v58h-70.019531c-5.523438 0-10 4.476563-10 10 0 5.523438 4.476562 10 10 10h70.019531v12.71875c-.050781 13.882813 5.441407 27.210938 15.253907 37.027344 9.816406 9.816406 23.144531 15.304687 37.027343 15.253906h12.71875v70.019531c0 5.523438 4.476563 10 10 10 5.523438 0 10-4.476562 10-10v-70.019531h58v70.019531c0 5.523438 4.476563 10 10 10 5.523438 0 10-4.476562 10-10v-70.019531h58v70.019531c0 5.523438 4.476563 10 10 10 5.523438 0 10-4.476562 10-10v-70.019531h12.71875c13.882813.050781 27.210938-5.4375 37.027344-15.253906s15.304687-23.144531 15.253906-37.027344v-12.71875h70.019531c5.523438 0 10-4.476562 10-10 0-5.523437-4.476562-10-10-10h-70.019531v-58h70.019531c5.523438 0 10-4.476562 10-10 0-5.523437-4.476562-10-10-10h-70.019531v-58zm-89.019531 169.359375c0 18.027344-14.613281 32.640625-32.640625 32.640625h-201.71875c-18.027344 0-32.640625-14.613281-32.640625-32.640625v-201.71875c0-18.027344 14.613281-32.640625 32.640625-32.640625h201.71875c18.027344 0 32.640625 14.613281 32.640625 32.640625zm0 0"/><path d="m318.019531 159.019531c0-5.523437-4.476562-10-10-10h-149c-5.523437 0-10 4.476563-10 10v149c0 5.523438 4.476563 10 10 10h149c5.523438 0 10-4.476562 10-10zm-21 138h-128v-128h128zm0 0"/></svg>