<?xml version="1.0" encoding="iso-8859-1"?>
<!-- Generator: Adobe Illustrator 17.1.0, SVG Export Plug-In . SVG Version: 6.00 Build 0)  -->
<!DOCTYPE svg PUBLIC "-//W3C//DTD SVG 1.1//EN" "http://www.w3.org/Graphics/SVG/1.1/DTD/svg11.dtd">
<svg version="1.1" id="Capa_1" xmlns="http://www.w3.org/2000/svg" xmlns:xlink="http://www.w3.org/1999/xlink" x="0px" y="0px"
	 viewBox="0 0 265.405 265.405" style="enable-background:new 0 0 265.405 265.405;" xml:space="preserve">
<g>
	<path style="fill:#000002;" d="M132.703,0.001C59.53,0.001,0,59.53,0,132.703s59.53,132.702,132.703,132.702
		c73.172,0,132.702-59.53,132.702-132.702S205.875,0.001,132.703,0.001z M132.703,250.405C67.802,250.405,15,197.604,15,132.703
		S67.802,15,132.703,15c64.901,0,117.702,52.801,117.702,117.702S197.605,250.405,132.703,250.405z"/>
	<path style="fill:#000002;" d="M205.114,124.659l-72.77-53.633c-3.335-2.455-8.03-1.746-10.487,1.588
		c-2.458,3.335-1.747,8.03,1.588,10.487l68.604,50.563l-68.605,50.571c-3.334,2.458-4.045,7.153-1.587,10.487
		c1.471,1.995,3.741,3.05,6.043,3.05c1.546,0,3.104-0.476,4.444-1.463l72.77-53.642c2.993-2.206,4.71-5.488,4.71-9.004
		C209.824,130.148,208.107,126.866,205.114,124.659z"/>
	<path style="fill:#000002;" d="M166.601,133.663c0-3.515-1.717-6.796-4.71-9.004L93.146,73.994
		c-2.017-1.486-4.262-2.272-6.493-2.272c-4.597,0-9.482,3.625-9.482,10.342v103.208c0,6.718,4.886,10.342,9.482,10.342
		c2.231,0,4.477-0.786,6.493-2.272l68.745-50.676C164.884,140.46,166.601,137.179,166.601,133.663z M92.171,175.426V91.909
		l56.654,41.755L92.171,175.426z"/>
</g>
<g>
</g>
<g>
</g>
<g>
</g>
<g>
</g>
<g>
</g>
<g>
</g>
<g>
</g>
<g>
</g>
<g>
</g>
<g>
</g>
<g>
</g>
<g>
</g>
<g>
</g>
<g>
</g>
<g>
</g>
</svg>
