<?xml version="1.0" encoding="iso-8859-1"?>
<!-- Generator: Adobe Illustrator 18.1.1, SVG Export Plug-In . SVG Version: 6.00 Build 0)  -->
<svg xmlns="http://www.w3.org/2000/svg" xmlns:xlink="http://www.w3.org/1999/xlink" version="1.1" id="Capa_1" x="0px" y="0px" viewBox="0 0 490.243 490.243" style="enable-background:new 0 0 490.243 490.243;" xml:space="preserve" width="512px" height="512px">
<g>
	<g id="Icons_5_">
		<g>
			<path d="M453.224,27.805H37.02C16.577,27.805,0,44.378,0,64.817v42.325c0,6.148,4.98,11.127,11.133,11.127h28.805v316.8     c0,15.095,12.279,27.369,27.365,27.369h355.659c15.086,0,27.361-12.274,27.361-27.369v-316.8h28.787     c6.156,0,11.133-4.979,11.133-11.127V64.816C490.243,44.378,473.669,27.805,453.224,27.805z M417.841,429.955H72.427V118.268     h345.414V429.955z" fill="#404040"/>
			<path d="M157.599,207.728h175.063c13.449,0,24.363-10.905,24.363-24.363c0-13.457-10.914-24.363-24.363-24.363H157.599     c-13.449,0-24.363,10.906-24.363,24.363C133.235,196.823,144.149,207.728,157.599,207.728z" fill="#404040"/>
		</g>
	</g>
</g>
<g>
</g>
<g>
</g>
<g>
</g>
<g>
</g>
<g>
</g>
<g>
</g>
<g>
</g>
<g>
</g>
<g>
</g>
<g>
</g>
<g>
</g>
<g>
</g>
<g>
</g>
<g>
</g>
<g>
</g>
</svg>
