<?xml version="1.0" encoding="iso-8859-1"?>
<!-- Generator: Adobe Illustrator 19.1.0, SVG Export Plug-In . SVG Version: 6.00 Build 0)  -->
<svg version="1.1" id="Capa_1" xmlns="http://www.w3.org/2000/svg" xmlns:xlink="http://www.w3.org/1999/xlink" x="0px" y="0px"
	 viewBox="0 0 482.769 482.769" style="enable-background:new 0 0 482.769 482.769;" xml:space="preserve">
<g>
	<g>
		<path d="M466.43,282.984l-29.8-19.1c1.4-12.7,1.6-25.1,0.7-37.3l30.9-19c12.7-7.8,17.9-23.4,12.3-37.2l-16.3-40.8
			c-4.6-11.6-15.7-19.1-28.2-19.1c-2.2,0-4.3,0.2-6.5,0.7l-34.5,7.5c-7.7-9.7-16.4-18.7-25.9-26.8l8.6-35.3
			c3.4-14.4-3.9-29.1-17.5-34.9l-40.1-17.2c-3.8-1.6-7.8-2.4-11.9-2.4c-10.3,0-19.8,5.2-25.5,13.9c0,0.1-0.1,0.1-0.1,0.2l-18.8,30
			c-12.6-1.4-25.1-1.6-37.2-0.7l-19-30.9c-5.5-8.9-15.4-14.5-26-14.5c-3.9,0-7.6,0.7-11.2,2.2l-40.8,16.3
			c-13.8,5.5-21.5,20.1-18.4,34.6l7.5,34.5c-10.2,8-19.5,17-27.8,26.9l-34.9-8.4c-2.3-0.6-4.7-0.8-7.1-0.8
			c-12.1,0-23.1,7.2-27.8,18.3l-17.2,40.2c-5.8,13.6-1,29.3,11.5,37.4l30.2,19.4c-1.3,12.3-1.5,24.8-0.4,37.4l-30.6,18.6
			c0,0-0.1,0-0.1,0.1c-12.1,7.5-17.5,22.7-12.9,36.2c0.1,0.2,0.2,0.4,0.2,0.6l16.3,40.8c4.7,11.5,15.7,19,28.2,19
			c2.2,0,4.3-0.2,6.5-0.7l35-7.6c7.9,9.8,16.7,18.8,26.1,26.8l-8.4,34.9c-3.4,14.4,3.9,29.1,17.5,34.9l40.2,17.2
			c3.8,1.6,7.8,2.4,11.9,2.4c10.3,0,19.8-5.2,25.5-13.9l19.4-30.2c12.3,1.3,24.8,1.5,37.4,0.4l18.6,30.6c5.5,8.9,15.4,14.5,26,14.5
			l0,0c3.9,0,7.6-0.7,11.2-2.2l40.8-16.3c13.8-5.5,21.5-20.1,18.4-34.6l-7.6-35c9.3-7.5,18-15.9,25.8-25.1l35.2,8.5
			c2.3,0.6,4.7,0.8,7.1,0.8c12.1,0,23.1-7.2,27.8-18.3l17.2-40.1C483.73,306.784,478.93,291.084,466.43,282.984z M453.03,309.784
			l-17.2,40.2c-0.5,1.2-1.7,2-3,2c-0.3,0-0.5,0-0.8-0.1l-43.5-10.5c-5.2-1.3-10.6,0.6-13.8,4.8c-9.6,12.3-20.7,23.2-33.1,32.2
			c-4.3,3.2-6.4,8.6-5.2,13.8l9.5,43.3c0.4,1.7-0.5,3.2-2,3.9l-40.8,16.3c-0.4,0.1-0.8,0.2-1.2,0.2l0,0c-0.9,0-2.2-0.4-2.9-1.6
			l-23.1-37.9c-2.5-4.1-6.9-6.5-11.5-6.5c-0.6,0-1.1,0-1.7,0.1c-7.3,0.9-14.7,1.4-22,1.4c-8.5,0-17.1-0.7-25.4-2
			c-5.3-0.8-10.5,1.5-13.4,6l-24,37.3c-0.9,1.3-2.6,1.9-4.1,1.3l-40.2-17.2c-1.5-0.6-2.2-2.2-1.9-3.8l10.4-43.2
			c1.3-5.2-0.7-10.6-4.9-13.9c-12.4-9.5-23.5-20.9-33.1-33.9c-3.2-4.3-8.5-6.3-13.8-5.2l-43.3,9.5c-0.3,0.1-0.5,0.1-0.8,0.1
			c-1.1,0-2.5-0.6-3.1-2.1l-16.2-40.4c-0.4-1.6,0.2-3.5,1.6-4.3l37.8-23c4.6-2.8,7.1-8,6.4-13.3c-2.1-16-1.9-32,0.6-47.4
			c0.8-5.3-1.5-10.5-6-13.4l-37.3-24c-1.4-0.9-1.9-2.6-1.3-4.1l17.2-40.1c0.5-1.2,1.7-2,3-2c0.3,0,0.5,0,0.8,0.1l43.2,10.4
			c5.2,1.3,10.7-0.7,13.9-5c9.8-12.9,21.5-24.2,34.7-33.5c4.4-3.1,6.6-8.6,5.4-13.9l-9.3-42.9c-0.4-1.7,0.5-3.2,2-3.9l40.8-16.3
			c0.4-0.1,0.8-0.2,1.2-0.2c0.9,0,2.2,0.4,3,1.6l23.4,38.2c2.8,4.5,8,7,13.2,6.3c15.1-1.9,31.1-1.7,47.3,0.8
			c5.3,0.8,10.6-1.6,13.5-6.2l23.4-37.2c0.9-1.3,2.6-1.9,4-1.3l40.1,17.2c1.5,0.6,2.2,2.2,1.9,3.8l-10.5,43.5
			c-1.2,5.1,0.6,10.6,4.8,13.8c12.6,9.8,23.6,21.3,32.8,34c3.1,4.4,8.6,6.5,13.8,5.3l42.9-9.3c0.3-0.1,0.5-0.1,0.8-0.1
			c1.1,0,2.5,0.6,3.1,2.1l16.3,40.8c0.6,1.5,0,3.3-1.4,4.1l-38.2,23.4c-4.5,2.8-7,8-6.3,13.2c1.9,15.1,1.7,31.1-0.8,47.3
			c-0.8,5.3,1.6,10.5,6.1,13.4l37,23.7C453.13,306.584,453.73,308.284,453.03,309.784z"/>
		<path d="M241.13,141.484c-0.5,0-1,0-1.6,0c-26.4,0-51.3,10.2-70.2,28.8s-29.5,43.4-29.9,69.8c-0.8,55.2,43.4,100.8,98.6,101.6
			c0.5,0,1,0,1.6,0c26.4,0,51.3-10.2,70.2-28.8c18.9-18.6,29.5-43.4,29.9-69.8C340.53,187.884,296.33,142.284,241.13,141.484z
			 M239.63,314.684c-0.4,0-0.8,0-1.1,0c-40.3-0.6-72.6-33.9-72-74.2c0.6-39.7,33.4-72,73.1-72c0.4,0,0.8,0,1.1,0
			c40.3,0.6,72.6,33.9,72,74.2C312.03,282.384,279.33,314.684,239.63,314.684z"/>
	</g>
</g>
<g>
</g>
<g>
</g>
<g>
</g>
<g>
</g>
<g>
</g>
<g>
</g>
<g>
</g>
<g>
</g>
<g>
</g>
<g>
</g>
<g>
</g>
<g>
</g>
<g>
</g>
<g>
</g>
<g>
</g>
</svg>
