<?xml version="1.0" ?><svg data-name="Слой 1" id="Слой_1" viewBox="0 0 128 128" xmlns="http://www.w3.org/2000/svg"><title/><path d="M114,128H2a2,2,0,0,1-2-2V14a2,2,0,0,1,2-2H114a2,2,0,0,1,2,2V126A2,2,0,0,1,114,128ZM4,124H112V16H4Z"/><path d="M126,118a2,2,0,0,1-2-2V4H12a2,2,0,0,1,0-4H126a2,2,0,0,1,2,2V116A2,2,0,0,1,126,118Z"/><path d="M61.57,96.18a2,2,0,0,1-1.42-.58l-3.66-3.66a2,2,0,0,1,2.83-2.83l2.11,2.11,39-46.69a2,2,0,1,1,3.06,2.57L63.1,95.47a2,2,0,0,1-1.45.71Z"/><path d="M42.3,96.18a2,2,0,0,1-1.42-.58L12.59,67.3a2,2,0,1,1,2.82-2.83L42.16,91.22l39-46.69a2,2,0,1,1,3.06,2.57L43.83,95.47a2,2,0,0,1-1.45.71Z"/></svg>