<?xml version="1.0" encoding="iso-8859-1"?>
<!-- Generator: Adobe Illustrator 19.0.0, SVG Export Plug-In . SVG Version: 6.00 Build 0)  -->
<svg xmlns="http://www.w3.org/2000/svg" xmlns:xlink="http://www.w3.org/1999/xlink" version="1.1" id="Capa_1" x="0px" y="0px" viewBox="0 0 512 512" style="enable-background:new 0 0 512 512;" xml:space="preserve" width="512px" height="512px">
<g>
	<g>
		<path d="M259.257,0c-10.794,0-19.542,8.748-19.542,19.542v310.066c0,10.794,8.748,19.542,19.542,19.542    s19.542-8.748,19.542-19.542V19.542C278.799,8.748,270.051,0,259.257,0z" fill="#404040"/>
	</g>
</g>
<g>
	<g>
		<path d="M380.73,106.224L272.598,5.257c-7.511-7.009-19.164-7.009-26.675,0L137.79,106.224    c-7.888,7.367-8.318,19.731-0.951,27.619c3.843,4.123,9.061,6.208,14.285,6.208c4.781,0,9.569-1.739,13.334-5.257l94.798-88.519    l94.798,88.519c7.901,7.367,20.258,6.937,27.619-0.951C389.035,125.955,388.618,113.591,380.73,106.224z" fill="#404040"/>
	</g>
</g>
<g>
	<g>
		<path d="M454.677,166.758H350.453c-10.794,0-19.542,8.748-19.542,19.542c0,10.794,8.748,19.542,19.542,19.542h84.682v267.074    H76.865V205.842h84.682c10.794,0,19.542-8.748,19.542-19.542c0-10.794-8.748-19.542-19.542-19.542H57.323    c-10.794,0-19.542,8.748-19.542,19.542v306.158c0,10.794,8.748,19.542,19.542,19.542h397.354c10.794,0,19.542-8.748,19.542-19.542    V186.3C474.219,175.507,465.471,166.758,454.677,166.758z" fill="#404040"/>
	</g>
</g>
<g>
</g>
<g>
</g>
<g>
</g>
<g>
</g>
<g>
</g>
<g>
</g>
<g>
</g>
<g>
</g>
<g>
</g>
<g>
</g>
<g>
</g>
<g>
</g>
<g>
</g>
<g>
</g>
<g>
</g>
</svg>
